<?xml version="1.0" encoding="utf-8"?>

<!-- The icon can be used freely in both personal and commercial projects with no attribution required, but always appreciated. 
You may NOT sub-license, resell, rent, redistribute or otherwise transfer the icon without express written permission from iconmonstr.com -->

<!DOCTYPE svg PUBLIC "-//W3C//DTD SVG 1.1//EN" "http://www.w3.org/Graphics/SVG/1.1/DTD/svg11.dtd">
<svg version="1.1" xmlns="http://www.w3.org/2000/svg" xmlns:xlink="http://www.w3.org/1999/xlink" x="0px" y="0px"
	 width="512px" height="512px" viewBox="0 0 512 512" enable-background="new 0 0 512 512" xml:space="preserve">
<path id="shipping-box-3-icon" d="M330.916,335.512l5.75-3.348v29.426l-5.75,3.348V335.512z M321.13,370.637l5.75-3.35v-29.426
	l-5.85,3.406L321.13,370.637z M363.993,345.682l5.851-3.406V312.85l-5.851,3.406V345.682z M440.387,169.299v197.225L276.97,461.666
	L71.613,342.082V144.856l163.715-94.522L440.387,169.299z M204.801,102.601l159.833,94.352l32.557-18.031L235.292,84.996
	L204.801,102.601z M261,271.447L101.257,178.98V324.84L261,417.686V271.447z M308.24,228.184l-157.789-94.204l-33.425,19.298
	l159.478,92.482L308.24,228.184z M410.459,205.867l-28.766,15.931v53.452l-0.193,0.107v0.227l-56.306,31.083v-0.189L325,306.584
	v-53.389l-34,18.83v146.799l119.459-69.549V205.867z M344.682,356.924l5.756-3.352v-29.426l-5.756,3.352V356.924z M378.25,337.381
	l4.84-2.818l0.91-0.535v-29.42l-5.75,3.348V337.381z M354.307,351.32l5.75-3.348v-29.426l-5.75,3.348V351.32z"/>
</svg>
