<?xml version="1.0" encoding="utf-8"?>

<!-- The icon can be used freely in both personal and commercial projects with no attribution required, but always appreciated. 
You may NOT sub-license, resell, rent, redistribute or otherwise transfer the icon without express written permission from iconmonstr.com -->

<!DOCTYPE svg PUBLIC "-//W3C//DTD SVG 1.1//EN" "http://www.w3.org/Graphics/SVG/1.1/DTD/svg11.dtd">
<svg version="1.1" xmlns="http://www.w3.org/2000/svg" xmlns:xlink="http://www.w3.org/1999/xlink" x="0px" y="0px"
	 width="512px" height="512px" viewBox="0 0 512 512" enable-background="new 0 0 512 512" xml:space="preserve">
<path id="save-9-icon" d="M380.183,163.417l28.502-28.272c9.217,11.001,17.262,23.017,23.951,35.85l-36.789,15.942
	C391.331,178.636,386.089,170.768,380.183,163.417z M400.388,329.669c-3.959,8.53-8.684,16.722-14.152,24.477l28.541,28.672
	c9.131-12.051,16.918-25.172,23.143-39.145L400.388,329.669z M414.735,272.79c-0.598,9.725-2.061,19.283-4.369,28.582l37.643,14.044
	c3.742-13.679,6.07-27.94,6.797-42.626H414.735z M256.124,353.243l109.635-109.826h-50.166V50.265H196.653v193.152h-50.164
	L256.124,353.243z M366.651,376.996c-29.797,28.866-68.939,44.739-110.527,44.739c-42.451,0-82.361-16.531-112.379-46.549
	c-30.02-30.018-46.551-69.928-46.551-112.381c0-54,26.795-102.215,69.459-131.395V85.095
	C101.729,117.849,57.194,185.122,57.194,262.806c0,109.867,89.064,198.93,198.93,198.93c53.969,0,102.908-21.501,138.746-56.392
	L366.651,376.996z M387.747,113.657c-12.711-11.225-26.867-20.851-42.154-28.562v46.314c4.768,3.26,9.326,6.771,13.684,10.491
	L387.747,113.657z M407.616,214.532c2.891,9.104,4.982,18.55,6.195,28.258h40.24c-1.531-15.318-4.799-30.123-9.605-44.217
	L407.616,214.532z"/>
</svg>
