<?xml version="1.0" encoding="utf-8"?>
<!-- Generator: Adobe Illustrator 18.0.0, SVG Export Plug-In . SVG Version: 6.00 Build 0)  -->
<!DOCTYPE svg PUBLIC "-//W3C//DTD SVG 1.1//EN" "http://www.w3.org/Graphics/SVG/1.1/DTD/svg11.dtd">
<svg version="1.1" id="Layer_1" xmlns="http://www.w3.org/2000/svg" xmlns:xlink="http://www.w3.org/1999/xlink" x="0px" y="0px"
	 viewBox="0 0 800 600" enable-background="new 0 0 800 600" xml:space="preserve">
<g>
	<path fill="#9A9A9A" d="M57.4,221.1c0-8.4,4.4-15.8,13.3-22.1s19.5-9.4,31.8-9.4s22.9,3.1,31.8,9.4c8.9,6.3,13.3,13.8,13.3,22.6
		c0,8.9-4.4,16.5-13.3,22.8c-8.6,6.1-19.2,9.2-31.8,9.2c-12.5,0-23.2-3.1-32.1-9.4C61.7,237.9,57.4,230.3,57.4,221.1z M57.4,394.2
		c0-8.6,4.4-16,13.3-22.3s19.5-9.4,31.8-9.4s22.9,3.1,31.8,9.4s13.3,13.8,13.3,22.6c0,8.9-4.4,16.5-13.3,22.8
		c-8.6,6.1-19.2,9.2-31.8,9.2c-12.8,0-23.5-3.1-32.1-9.2C61.7,411.1,57.4,403.4,57.4,394.2z"/>
	<path fill="#9A9A9A" d="M262.3,221.1c0-8.4,4.4-15.8,13.3-22.1s19.5-9.4,31.8-9.4s22.9,3.1,31.8,9.4c8.9,6.3,13.3,13.8,13.3,22.6
		c0,8.9-4.4,16.5-13.3,22.8c-8.6,6.1-19.2,9.2-31.8,9.2c-12.5,0-23.2-3.1-32.1-9.4C266.6,237.9,262.3,230.3,262.3,221.1z
		 M262.3,394.2c0-8.6,4.4-16,13.3-22.3s19.5-9.4,31.8-9.4s22.9,3.1,31.8,9.4s13.3,13.8,13.3,22.6c0,8.9-4.4,16.5-13.3,22.8
		c-8.6,6.1-19.2,9.2-31.8,9.2c-12.8,0-23.5-3.1-32.1-9.2C266.6,411.1,262.3,403.4,262.3,394.2z"/>
	<path fill="#9A9A9A" d="M457,189.6h76.7l1,17.4c26.7-18.8,56.8-28.2,90.2-28.2c38.4,0,68.4,8.6,89.9,25.8
		c18.5,14.6,27.8,38.5,27.8,71.5v150.4h-76.7V289.1c0-23.1-4.5-39-13.6-47.9c-8.8-9-24.9-13.5-48.2-13.5c-25.3,0-43.3,5.9-53.9,17.8
		c-10.4,11.7-15.6,32.2-15.6,61.3v119.7H458L457,189.6z"/>
</g>
</svg>
